<?xml version="1.0" encoding="UTF-8" standalone="no"?>
<!-- Created with Inkscape (http://www.inkscape.org/) -->

<svg
   width="110.62727mm"
   height="143.58698mm"
   viewBox="0 0 110.62727 143.58698"
   version="1.1"
   id="svg1"
   sodipodi:docname="drawing.svg"
   inkscape:export-filename="drawing.png"
   inkscape:export-xdpi="96"
   inkscape:export-ydpi="96"
   inkscape:version="1.3 (0e150ed6c4, 2023-07-21)"
   xmlns:inkscape="http://www.inkscape.org/namespaces/inkscape"
   xmlns:sodipodi="http://sodipodi.sourceforge.net/DTD/sodipodi-0.dtd"
   xmlns="http://www.w3.org/2000/svg"
   xmlns:svg="http://www.w3.org/2000/svg">
  <sodipodi:namedview
     id="namedview1"
     pagecolor="#ffffff"
     bordercolor="#000000"
     borderopacity="0.25"
     inkscape:showpageshadow="2"
     inkscape:pageopacity="0.0"
     inkscape:pagecheckerboard="0"
     inkscape:deskcolor="#d1d1d1"
     inkscape:document-units="mm"
     inkscape:zoom="0.41959175"
     inkscape:cx="212.11094"
     inkscape:cy="523.12754"
     inkscape:window-width="1536"
     inkscape:window-height="667"
     inkscape:window-x="-8"
     inkscape:window-y="-8"
     inkscape:window-maximized="1"
     inkscape:current-layer="layer1" />
  <defs
     id="defs1">
    <inkscape:path-effect
       effect="envelope"
       id="path-effect3"
       is_visible="true"
       lpeversion="1"
       yy="true"
       xx="true"
       bendpath1="m 56.062012,175.41476 c 41.272488,21.44194 83.168768,30.63636 120.303858,0"
       bendpath2="m 176.36587,175.41476 v 66.96859"
       bendpath3="m 56.062012,242.38335 c 46.612548,32.88772 85.515788,30.14995 120.303858,0"
       bendpath4="m 56.062012,175.41476 v 66.96859"
       bendpath1-nodetypes="cc"
       bendpath3-nodetypes="cc" />
    <rect
       x="247.85997"
       y="869.89319"
       width="555.3017"
       height="216.87747"
       id="rect3" />
  </defs>
  <g
     inkscape:label="Layer 1"
     inkscape:groupmode="layer"
     id="layer1"
     transform="translate(-49.046228,-10.089178)">
    <ellipse
       style="fill:#1f2f44;fill-opacity:1;stroke-width:0.211172"
       id="path1"
       cx="104.35986"
       cy="28.060514"
       rx="54.544586"
       ry="17.971336" />
    <path
       id="rect1-1"
       style="fill:#1f2f44;fill-opacity:1;stroke:#000000;stroke-width:0.186644"
       d="m 49.139553,38.84718 c 35.68975,12.224585 73.118147,16.454141 110.440617,0 v 26.788418 c -29.79477,11.559592 -67.282363,17.700665 -110.440617,0 z"
       sodipodi:nodetypes="ccccc" />
    <path
       id="rect1-1-9"
       style="fill:#1f2f44;fill-opacity:1;stroke:#000000;stroke-width:0.186644"
       d="m 49.13955,70.73335 c 35.68975,12.224585 73.11815,16.454141 110.44062,0 v 26.788418 c -29.79477,11.559592 -67.282365,17.700662 -110.44062,0 z"
       sodipodi:nodetypes="ccccc" />
    <path
       d="m 113.83439,220.66714 c -7.81614,-0.47853 -15.180249,-1.94799 -22.872657,-3.82571 -7.762857,-1.90032 -16.115243,-4.39164 -23.904988,-5.74329 -0.0032,3.96313 0.59342,7.63069 1.747748,11.06188 1.149074,3.3741 2.716828,6.49871 4.668144,9.31739 1.873803,2.7439 4.116286,5.30033 6.701786,7.47761 2.630008,2.19779 5.567881,4.02597 8.827453,5.21932 0.481107,0.17614 0.963809,0.33553 1.448373,0.47755 3.890743,1.13871 7.807644,1.13222 11.843921,-0.17612 4.53044,-1.50163 7.79273,-3.60563 9.67697,-5.68483 0.19423,0.0179 0.38849,0.0352 0.58279,0.0516 0.002,5.21854 0.0104,11.20229 0.0349,17.45981 -3.8315,2.10052 -7.74754,3.44971 -11.78507,3.97485 -3.610862,0.46964 -7.273801,-0.12105 -11.032846,-1.67588 -0.450784,-0.18646 -0.901808,-0.3861 -1.353301,-0.59855 -10.195941,-4.79758 -18.430276,-14.55218 -23.498711,-22.02461 -5.499762,-8.1521 -8.908474,-16.15394 -8.914671,-26.7422 -0.006,-10.29716 3.23995,-18.79023 8.652497,-22.96019 5.707313,-4.35716 12.213256,-3.22042 21.817035,0.66068 1.393096,0.56298 2.766284,1.14457 4.072246,1.7165 0,0 2e-6,0 2e-6,0 6.581298,2.88222 12.611469,5.92708 16.323659,8.99282 4.75973,3.90567 7.01621,8.54653 6.98126,17.22131 -0.007,1.81655 -0.0127,3.77186 -0.0165,5.80002 z m -10.46405,-9.24844 c -0.0241,-5.10285 -1.45122,-8.55556 -4.300035,-11.44388 -1.970427,-2.01871 -4.774632,-3.74569 -8.215991,-5.25605 0,0 -10e-7,0 -10e-7,0 -1.40792,-0.61793 -2.953498,-1.21389 -4.591103,-1.76125 -5.777278,-1.93102 -10.108794,-2.26831 -13.493883,-0.24888 -3.286411,1.99355 -5.222039,5.54461 -5.693849,10.28651 7.781509,1.39394 16.150058,3.89635 23.914232,5.80302 4.130731,1.01151 8.211352,1.91923 12.38063,2.62053 z m 72.93016,29.33582 c -9.02532,3.18671 -17.74769,9.32072 -27.38941,14.20058 -0.50393,0.25532 -1.00995,0.50715 -1.5184,0.75522 -6.92845,3.37354 -13.99803,5.88569 -21.50393,6.91015 -0.21197,-4.50185 -0.36838,-8.79846 -0.48652,-12.8178 7.1063,-14.64752 13.24115,-25.48978 20.49998,-36.36222 0.51376,-0.77263 1.02707,-1.53675 1.54069,-2.29417 5.60226,-8.22367 9.54568,-13.30121 15.15772,-21.10534 -4.77222,1.8003 -9.61015,3.82091 -14.59896,5.56098 -0.50844,0.1781 -1.01836,0.35366 -1.53016,0.5264 -6.73347,2.24744 -13.3347,3.82973 -20.27652,4.43119 0.13019,-1.87337 0.30779,-3.55128 0.56005,-5.03002 7.08333,-0.65347 13.80346,-2.45594 20.49321,-5.13385 0.51035,-0.20476 1.01855,-0.41378 1.5249,-0.62669 9.36724,-3.93494 17.94509,-9.31672 26.63467,-12.42231 -0.0342,2.50745 -0.0537,5.03535 -0.065,7.53796 -10.57066,15.87784 -17.26879,23.22085 -27.77027,42.77397 -0.49261,0.92169 -0.9847,1.8562 -1.47643,2.80431 -2.40237,4.61515 -4.7471,9.4806 -7.09174,14.74939 2.54569,-0.77018 5.04617,-1.64455 7.53598,-2.59372 0.51068,-0.19664 1.0193,-0.39576 1.52635,-0.59713 9.52634,-3.767 19.01505,-8.69902 28.20632,-10.32427 -8.3e-4,3.00877 0.005,6.06699 0.0275,9.05737 z"
       id="text2"
       style="font-size:42.6667px;white-space:pre;fill:#ff6049;stroke:#ff6049;stroke-width:2.73807"
       aria-label="ez"
       inkscape:path-effect="#path-effect3"
       inkscape:original-d="M 113.90372,210.154 H 66.957243 q 0,5.87543 1.768325,10.26776 1.768353,4.33526 4.848678,7.13039 2.966229,2.73807 7.016294,4.1071 4.1071,1.36903 9.012811,1.36903 6.502906,0 13.062879,-2.56694 6.61697,-2.624 9.4121,-5.13387 h 0.57042 v 11.69381 q -5.4191,2.28173 -11.06636,3.8219 -5.647262,1.54017 -11.864944,1.54017 -15.858004,0 -24.756719,-8.55647 -8.898715,-8.61351 -8.898715,-24.41445 0,-15.62981 8.499423,-24.81373 8.556458,-9.18394 22.474978,-9.18394 12.891747,0 19.850977,7.52968 7.01633,7.52969 7.01633,21.39114 z m -10.43891,-8.21421 q -0.057,-8.44237 -4.278227,-13.06286 -4.164134,-4.62049 -12.720618,-4.62049 -8.613491,0 -13.747366,5.07682 -5.076839,5.07683 -5.761356,12.60653 z m 72.90106,38.96042 h -51.45286 v -7.92897 l 37.13505,-46.83237 h -36.33644 v -8.95577 h 49.68455 v 7.64376 l -37.30619,47.00351 h 38.27589 z"
       transform="matrix(0.89910447,0,0,0.53379781,-0.07652187,12.657853)" />
  </g>
</svg>
